Coordinates
version=1
nRows=21
nColumns=22
inDegrees=yes

Units are S.I. units (second, meters, Newtons, ...)
If the header above contains a line with 'inDegrees', this indicates whether rotational values are in degrees (yes) or radians (no).

endheader
time	pelvis_tilt	pelvis_list	pelvis_rotation	pelvis_tx	pelvis_ty	pelvis_tz	hip_flexion_r	hip_adduction_r	hip_rotation_r	knee_angle_r	ankle_angle_r	subtalar_angle_r	hip_flexion_l	hip_adduction_l	hip_rotation_l	knee_angle_l	ankle_angle_l	subtalar_angle_l	lumbar_extension	lumbar_bending	lumbar_rotation
      4.15000000	     -4.61765145	     -6.35195306	      8.81530305	      0.18513411	      0.92509674	     -0.55500082	     -9.91636698	     15.28690574	     23.41516565	    -20.22503176	     11.42081279	     -2.81982018	     31.40796889	     -7.09181193	     27.41967280	    -12.85299512	      5.86295952	      7.97601469	      1.20331701	      8.72929616	     -0.97832749
      4.16000000	     -4.73897769	     -6.11364018	      8.01506146	      0.19593858	      0.92455101	     -0.55741560	    -10.01659721	     14.93068773	     23.71800866	    -21.22360076	     10.95791305	     -1.81385454	     31.48111148	     -6.54959253	     27.86076452	    -14.27993578	      5.03566366	      7.94375387	      1.39125808	      8.45413695	     -1.07825701
      4.17000000	     -4.83868061	     -5.82806372	      7.23862927	      0.20686305	      0.92417839	     -0.55972273	    -10.01198625	     14.56467277	     23.88606795	    -22.40238345	     10.39844398	     -0.68076536	     31.58274839	     -5.96920421	     28.04236144	    -15.91654709	      4.26270275	      8.01991580	      1.55890522	      8.12519160	     -1.20392931
      4.18000000	     -4.89463635	     -5.51361459	      6.48824598	      0.21790421	      0.92401166	     -0.56187589	     -9.91337803	     14.21278048	     23.90551175	    -23.76323557	      9.68088631	      0.61196422	     31.68871636	     -5.40106096	     27.92135511	    -17.68926142	      3.67010362	      8.29285422	      1.68223883	      7.76059776	     -1.35272922
      4.19000000	     -4.89500631	     -5.18293665	      5.75953735	      0.22902947	      0.92405799	     -0.56383942	     -9.70913486	     13.88898958	     23.75026485	    -25.33140086	      8.78634705	      2.09310081	     31.76330048	     -4.89532055	     27.48313949	    -19.49593752	      3.32327978	      8.80584573	      1.74698129	      7.37169749	     -1.51744085
      4.20000000	     -4.83841149	     -4.85001107	      5.04774665	      0.24015957	      0.92430423	     -0.56557736	     -9.37135333	     13.60442679	     23.38379084	    -27.13479564	      7.69134610	      3.74355741	     31.77443968	     -4.49309018	     26.76450103	    -21.23816967	      3.21755597	      9.53661958	      1.74343054	      6.97246038	     -1.70176331
      4.21000000	     -4.73950477	     -4.51321619	      4.34368767	      0.25121413	      0.92471723	     -0.56709396	     -8.85608816	     13.34417378	     22.76781565	    -29.20059352	      6.38613557	      5.51289764	     31.69443295	     -4.20385237	     25.82215037	    -22.82614197	      3.36220814	     10.40384866	      1.68093201	      6.55916329	     -1.90871508
      4.22000000	     -4.62046388	     -4.16680357	      3.63993062	      0.26208790	      0.92524890	     -0.56842938	     -8.11609420	     13.08059163	     21.87412976	    -31.54620942	      4.87320248	      7.30402889	     31.51771172	     -4.00951850	     24.72584151	    -24.21295992	      3.73164725	     11.29476131	      1.57498074	      6.12934240	     -2.12786295
      4.23000000	     -4.51507394	     -3.80123073	      2.93695621	      0.27267481	      0.92583418	     -0.56964440	     -7.09762808	     12.77922014	     20.68837419	    -34.17989750	      3.15658280	      8.92334778	     31.26543275	     -3.87215071	     23.54039468	    -25.38156633	      4.28002499	     12.08386987	      1.45734239	      5.67983099	     -2.37795051
      4.24000000	     -4.42723269	     -3.40974558	      2.22850931	      0.28292277	      0.92646293	     -0.57074100	     -5.79983614	     12.40799245	     19.23577232	    -37.07529308	      1.22872822	     10.21684226	     30.91967217	     -3.76450852	     22.33541501	    -26.31320325	      4.95102936	     12.68859428	      1.32952728	      5.20268245	     -2.64664569
      4.25000000	     -4.36402594	     -2.97431759	      1.52642799	      0.29280409	      0.92709591	     -0.57181223	     -4.23462739	     11.91618716	     17.53972583	    -40.18811724	     -0.88926165	     10.95476024	     30.50714132	     -3.63032502	     21.13571451	    -27.05094583	      5.69295669	     13.02427924	      1.20068248	      4.68965153	     -2.95903588
      4.26000000	     -4.29646168	     -2.47843921	      0.82959619	      0.30234113	      0.92778156	     -0.57288233	     -2.47485031	     11.25811572	     15.67791068	    -43.44332405	     -3.13920628	     11.29129899	     29.99517048	     -3.43472288	     19.97992599	    -27.60261976	      6.43873110	     13.12779736	      1.04190580	      4.12500981	     -3.29963457
      4.27000000	     -4.34585708	     -2.03475623	      0.20082204	      0.31149062	      0.92829755	     -0.57397796	     -0.41981639	     10.55186679	     13.64902929	    -46.76630431	     -5.57680827	     10.75150851	     29.58971150	     -3.23339041	     18.98362179	    -28.06615054	      7.26744169	     13.23424734	      1.00392403	      3.63071523	     -3.76602835
      4.28000000	     -4.31562503	     -1.51379012	     -0.41837646	      0.32043335	      0.92900029	     -0.57512444	      1.63125950	      9.63041703	     11.59467574	    -50.04339991	     -8.03696432	      9.63839799	     29.01504526	     -2.92969605	     18.05788872	    -28.37356369	      7.99362244	     13.05462469	      0.86896973	      3.07407159	     -4.23619162
      4.29000000	     -4.24612251	     -0.97819118	     -1.00302345	      0.32921912	      0.92982466	     -0.57633692	      3.66598018	      8.57317650	      9.59131346	    -53.19472453	    -10.33345737	      8.31939217	     28.35114462	     -2.56246743	     17.24526448	    -28.57451055	      8.66616005	     12.74908283	      0.69463665	      2.52467596	     -4.74801873
      4.30000000	     -4.12603096	     -0.44905210	     -1.55565900	      0.33791264	      0.93080536	     -0.57756910	      5.62212324	      7.43140523	      7.70946208	    -56.15594114	    -12.27564440	      6.95800741	     27.58031492	     -2.15200373	     16.57767526	    -28.66343174	      9.30965625	     12.36128612	      0.47931140	      1.99723166	     -5.26718192
      4.31000000	     -4.00142836	      0.02014734	     -2.08176825	      0.34649277	      0.93188444	     -0.57875988	      7.52551461	      6.30554459	      5.99937511	    -58.89501235	    -13.70551298	      5.80058070	     26.79136803	     -1.76269184	     16.01124994	    -28.69472791	      9.86923882	     11.88318395	      0.27160966	      1.54909638	     -5.79226773
      4.32000000	     -3.83075073	      0.44539207	     -2.59320036	      0.35502615	      0.93312483	     -0.57985563	      9.30717931	      5.20708612	      4.47165464	    -61.38740673	    -14.46704894	      4.82712477	     25.91114213	     -1.39127507	     15.54434927	    -28.63317104	     10.40339360	     11.40104293	      0.03180676	      1.15441359	     -6.29042940
      4.33000000	     -3.63279682	      0.78908597	     -3.08544614	      0.36348633	      0.93450938	     -0.58080264	     10.98334020	      4.20432032	      3.09499565	    -63.61337373	    -14.59136193	      3.98554695	     24.98220528	     -1.08962785	     15.12871668	    -28.50581149	     10.85436972	     10.92975687	     -0.22541498	      0.84950662	     -6.78135513
      4.34000000	     -3.43720368	      1.05326877	     -3.57284901	      0.37186138	      0.93597935	     -0.58153225	     12.58975038	      3.31921636	      1.85197744	    -65.57505909	    -14.11213135	      3.22754122	     24.02594733	     -0.87395046	     14.74906359	    -28.30307581	     11.27654958	     10.49022732	     -0.46778557	      0.62596495	     -7.23730985
      4.35000000	     -3.25138215	      1.24329190	     -4.06015681	      0.38014454	      0.93751429	     -0.58202466	     14.13467634	      2.55830686	      0.71195815	    -67.26308444	    -13.14738758	      2.48503489	     23.05185508	     -0.74914148	     14.37289029	    -28.03064509	     11.66916464	     10.10184489	     -0.69031403	      0.47446528	     -7.64216626
